<?xml version="1.0"?>
<svg xmlns="http://www.w3.org/2000/svg" viewBox="0 0 26 26" enable-background="new 0 0 26 26">
    <path d="M 7 0 C 6.4 0 6 0.4 6 1 L 6 4 C 6 4.6 6.4 5 7 5 C 7.6 5 8 4.6 8 4 L 8 1 C 8 0.4 7.6 0 7 0 z M 19 0 C 18.4 0 18 0.4 18 1 L 18 4 C 18 4.6 18.4 5 19 5 C 19.6 5 20 4.6 20 4 L 20 1 C 20 0.4 19.6 0 19 0 z M 3 2 C 1.3 2 0 3.3 0 5 L 0 23 C 0 24.7 1.3 26 3 26 L 23 26 C 24.7 26 26 24.7 26 23 L 26 5 C 26 3.3 24.7 2 23 2 L 21 2 L 21 4 C 21 5.1 20.1 6 19 6 C 17.9 6 17 5.1 17 4 L 17 2 L 9 2 L 9 4 C 9 5.1 8.1 6 7 6 C 5.9 6 5 5.1 5 4 L 5 2 L 3 2 z M 2 9 L 24 9 L 24 23 C 24 23.6 23.6 24 23 24 L 3 24 C 2.4 24 2 23.6 2 23 L 2 9 z M 16.6875 12.09375 C 14.9875 12.09375 13.6875 13.1 13.6875 14.5 C 13.6875 15.3 14.10625 16.00625 14.90625 16.40625 C 14.00625 16.90625 13.39375 17.6 13.59375 18.5 C 13.59375 19.7 14.5875 20.90625 16.6875 20.90625 C 18.5875 20.90625 19.90625 19.8125 19.90625 18.3125 C 19.90625 17.2125 19.1125 16.4875 18.3125 16.1875 C 19.1125 15.6875 19.5 15.0125 19.5 14.3125 C 19.5 13.2125 18.6875 12.09375 16.6875 12.09375 z M 9.1875 12.40625 L 7 13.40625 L 7.3125 14.90625 L 8.90625 14.09375 L 8.90625 20.90625 L 10.8125 20.90625 L 10.8125 12.40625 L 9.1875 12.40625 z M 16.6875 13.40625 C 17.3875 13.40625 17.6875 14 17.6875 14.5 C 17.6875 15.1 17.3125 15.49375 16.8125 15.59375 C 16.1125 15.39375 15.59375 15.1 15.59375 14.5 C 15.59375 14 15.8875 13.50625 16.6875 13.40625 z M 16.5 17.09375 C 17.2 17.29375 17.8125 17.8 17.8125 18.5 C 17.8125 19.1 17.2875 19.59375 16.6875 19.59375 C 15.9875 19.59375 15.5 19.00625 15.5 18.40625 C 15.5 17.70625 15.9 17.29375 16.5 17.09375 z"/>
</svg>
